# xmcd
#
# Track frame offsets:
#	150
#	13803
#	26053
#	40366
#	53086
#	67285
#	81160
#	95969
#	109526
#	125083
#	137207
#	147475
#	163160
#
# Disc length: 2378 seconds
# Revision: 7
# Processed by: cddbd v1.5.2PL0 Copyright (c) Steve Scherf et al.
# Submitted via: dBpowerAMP V12.0
#
DISCID=c909480d
DTITLE=Johnny Cash - Out Among The Stars
DYEAR=2014
DGENRE=Country
TTITLE0=Out Among The Stars
TTITLE1=Baby Ride Easy (Duet with June Carter Cash)
TTITLE2=She Used To Love Me A Lot
TTITLE3=After All
TTITLE4=I'm Movin' On (Duet with Waylon Jennings)
TTITLE5=If I Told You Who It Was
TTITLE6=Call Your Mother
TTITLE7=I Drove Her Out Of My Mind
TTITLE8=Tennessee
TTITLE9=Rock And Roll Shoes
TTITLE10=Don't You Think It's Come Our Time (Duet with June Carter Cash)
TTITLE11=I Came To Believe
TTITLE12=She Used To Love Me A Lot [JC/EC Version]
EXTD=
EXTT0=
EXTT1=
EXTT2=
EXTT3=
EXTT4=
EXTT5=
EXTT6=
EXTT7=
EXTT8=
EXTT9=
EXTT10=
EXTT11=
EXTT12=
PLAYORDER=
